<?xml version="1.0" encoding="utf-8"?>
<svg version="1.1" id="Layer_1" xmlns="http://www.w3.org/2000/svg" x="0px" y="0px"
	 viewBox="-281 373 48 48" style="enable-background:new -281 373 48 48;" xml:space="preserve">
<style type="text/css">
	.st0{fill:none;}
</style>
<path class="st0" d="M-281,373h48v48h-48V373z"/>
<path d="M-238.7,399.3c0.1-0.8,0.2-1.5,0.2-2.3s-0.1-1.6-0.2-2.3l5.2-4c0.5-0.4,0.6-1,0.3-1.5l-4.9-8.3c-0.3-0.5-0.9-0.7-1.5-0.5
	l-6.1,2.4c-1.3-0.9-2.7-1.8-4.2-2.4l-0.9-6.4c-0.1-0.6-0.6-1-1.2-1h-9.9c-0.6,0-1.1,0.4-1.2,1l-0.9,6.4c-1.5,0.6-2.9,1.4-4.2,2.4
	l-6.1-2.4c-0.6-0.2-1.2,0-1.5,0.5l-4.9,8.3c-0.3,0.5-0.2,1.2,0.3,1.5l5.2,4c-0.1,0.8-0.2,1.5-0.2,2.3s0.1,1.6,0.2,2.3l-5.2,4
	c-0.5,0.4-0.6,1-0.3,1.5l4.9,8.3c0.3,0.5,0.9,0.7,1.5,0.5l6.1-2.4c1.3,0.9,2.7,1.8,4.2,2.4l0.9,6.4c0.1,0.6,0.6,1,1.2,1h9.9
	c0.6,0,1.1-0.4,1.2-1l0.9-6.4c1.5-0.6,2.9-1.4,4.2-2.4l6.1,2.4c0.6,0.2,1.2,0,1.5-0.5l4.9-8.3c0.3-0.5,0.2-1.2-0.3-1.5L-238.7,399.3
	z M-257,405.4c-4.8,0-8.6-3.8-8.6-8.4c0-4.6,3.9-8.4,8.6-8.4s8.6,3.8,8.6,8.4C-248.4,401.6-252.2,405.4-257,405.4z"/>
</svg>
